<svg id="Capa_1" enable-background="new 0 0 512 512" height="512" viewBox="0 0 512 512" width="512" xmlns="http://www.w3.org/2000/svg"><g><path d="m443.017 393.246-15.647-13.111c-3.177-2.662-7.912-2.246-10.577.926-2.665 3.174-2.249 7.904.927 10.566l3.219 2.697h-192.691l3.22-2.693c3.179-2.659 3.598-7.389.936-10.564-2.662-3.178-7.398-3.595-10.576-.936l-15.713 13.143c-2.567 2.176-4.039 5.293-4.039 8.551s1.472 6.375 4.077 8.582l15.675 13.111c1.406 1.177 3.115 1.75 4.816 1.75 2.145 0 4.275-.914 5.76-2.686 2.662-3.176 2.242-7.905-.936-10.564l-3.22-2.693h192.692l-3.219 2.697c-3.177 2.662-3.592 7.393-.927 10.566 1.485 1.769 3.613 2.68 5.756 2.68 1.702 0 3.415-.575 4.821-1.754l15.68-13.139c2.567-2.176 4.039-5.292 4.039-8.551s-1.474-6.375-4.073-8.578z"/><path d="m216.528 229.022h80.105c7.375 0 13.375-5.981 13.375-13.333v-48.622c0-7.368-6-13.362-13.375-13.362h-80.105c-7.359 0-13.346 5.994-13.346 13.362v48.622c0 7.352 5.987 13.333 13.346 13.333zm1.669-60.317h76.797v45.317h-76.797z"/><path d="m434.507 229.022c7.375 0 13.375-5.981 13.375-13.333v-48.622c0-7.368-6-13.362-13.375-13.362h-80.077c-7.375 0-13.375 5.994-13.375 13.362v48.622c0 7.352 6 13.333 13.375 13.333zm-78.437-60.317h76.797v45.317h-76.797z"/><path d="m202.87 344.848c0 6.743 5.275 12.229 11.759 12.229h88.949c4.146 0 7.508-3.357 7.508-7.5s-3.361-7.5-7.508-7.5h-85.693v-36.171h103.579c5.859 0 10.625-4.546 10.625-10.134v-33.107h100.777v79.412h-94.14c-4.146 0-7.508 3.357-7.508 7.5s3.361 7.5 7.508 7.5h96.971c6.605 0 12.185-5.601 12.185-12.229v-85.209c0-6.603-5.364-11.974-11.958-11.974h-221.096c-6.594 0-11.958 5.371-11.958 11.974zm114.205-82.183v28.241h-99.19v-28.241z"/><path d="m499.022 110.209h-332.321c-4.195-37.962-39.879-67.709-83.142-67.709-46.075 0-83.559 33.738-83.559 75.209v257.836c0 51.807 46.932 93.955 104.62 93.955h100.655c4.146 0 7.508-3.357 7.508-7.5s-3.361-7.5-7.508-7.5h-100.655c-49.408 0-89.605-35.419-89.605-78.955 0-33.199 30.749-60.209 68.544-60.209 37.796 0 68.544 27.01 68.544 60.209 0 .124.013.245.019.368-.006.123-.019.244-.019.368 0 23.518-21.911 42.651-48.844 42.651-26.917 0-48.815-19.134-48.815-42.651 0-12.932 12.222-23.452 27.245-23.452 15.038 0 27.272 10.521 27.272 23.452 0 4.143 3.361 7.5 7.508 7.5 4.146 0 7.508-3.357 7.508-7.5 0-21.202-18.97-38.452-42.287-38.452-23.302 0-42.26 17.25-42.26 38.452 0 31.789 28.634 57.651 63.831 57.651 35.212 0 63.859-25.862 63.859-57.651 0-.124-.013-.245-.019-.368.006-.123.019-.244.019-.368v-250.336h329.867v329.291h-257.073c-4.146 0-7.508 3.357-7.508 7.5s3.361 7.5 7.508 7.5h259.109c7.156 0 12.978-5.55 12.978-12.371v-334.55c-.001-6.821-5.823-12.37-12.979-12.37zm-415.463 190.127c-28.349 0-53.429 12.784-68.544 32.271v-214.898c0-33.199 30.749-60.209 68.544-60.209 37.796 0 68.544 27.01 68.544 60.209v214.898c-15.115-19.487-40.195-32.271-68.544-32.271z"/></g></svg>